<?xml version="1.0" encoding="UTF-8" standalone="no"?>
<svg xmlns="http://www.w3.org/2000/svg" height="512" width="512" version="1.1" viewBox="0 0 135.46666 135.46667">
 <g transform="translate(0 -161.5)">
  <path style="stroke-width:4.233;fill:#494949" d="m0.000007003 161.5v135.5h135.5v-135.5z"/>
  <path style="stroke-width:4.233;fill:#4f4f4f" d="m0 270.5v26.53h135.5v-135.5h-26.55z"/>
  <path style="stroke-width:3.372;fill:#d1d1d1" d="m35.73 192.9c-4.414-0.002-8.029 3.628-8.029 8.045v49.85c0 4.414 3.611 8.029 8.029 8.029h64.23c4.414 0 8.029-3.611 8.029-8.029v-43.41c0-4.414-36.89-8.067-36.89-8.067l-6.517-6.403z"/>
  <path style="stroke-width:3.372;fill:#f2f2f2" d="m99.97 199.3c4.414 0.0002 8.029 3.613 8.029 8.031v49.85c0 4.414-3.611 8.029-8.029 8.029h-64.24c-4.414 0-8.029-3.611-8.029-8.029v-42.89c0-4.414 3.612-8.101 8.029-8.029h28.94l6.441-6.97z"/>
 </g>
</svg>
